<?xml version="1.0" standalone="no"?>
<!DOCTYPE svg PUBLIC "-//W3C//DTD SVG 20010904//EN"
 "http://www.w3.org/TR/2001/REC-SVG-20010904/DTD/svg10.dtd">
<svg version="1.0" xmlns="http://www.w3.org/2000/svg"
 width="500.000000pt" height="500.000000pt" viewBox="0 0 500.000000 500.000000"
 preserveAspectRatio="xMidYMid meet">

<g transform="translate(0.000000,500.000000) scale(0.100000,-0.100000)"
fill="#000000" stroke="none">
<path d="M3342 4114 c-51 -173 -126 -186 -386 -65 -228 106 -371 136 -604 128
-222 -8 -366 -49 -519 -149 -151 -99 -269 -233 -342 -390 -64 -135 -75 -191
-76 -368 0 -207 29 -310 132 -472 l43 -68 707 0 708 0 -35 22 c-19 12 -172 92
-340 178 -168 86 -336 176 -375 199 -144 87 -272 215 -311 307 -89 213 37 458
282 545 81 29 262 37 360 16 104 -22 217 -71 309 -132 90 -59 230 -200 288
-287 75 -114 136 -268 171 -430 6 -26 10 -28 52 -28 l46 0 -7 315 c-4 174 -10
413 -14 533 l-6 217 -30 3 c-30 3 -31 1 -53 -74z"/>
<path d="M1365 2574 c-30 -30 -15 -57 45 -81 59 -23 74 -48 44 -70 -24 -18
-54 -16 -76 4 -10 9 -21 13 -26 9 -11 -12 29 -36 61 -36 45 0 67 17 67 51 0
25 -6 32 -37 45 -58 23 -68 29 -71 52 -4 26 41 41 69 23 26 -15 34 -14 19 4
-17 20 -74 19 -95 -1z"/>
<path d="M1603 2583 l27 -4 2 -92 2 -92 5 90 c6 85 7 90 31 96 16 5 4 7 -35 7
-33 -1 -48 -3 -32 -5z"/>
<path d="M1800 2495 l0 -95 55 0 c30 0 55 5 55 10 0 6 -20 10 -45 10 -45 0
-45 0 -45 34 0 34 1 35 48 39 l47 3 -47 2 -48 2 0 39 0 40 48 4 c46 3 46 3
-10 5 l-58 2 0 -95z"/>
<path d="M2033 2558 c8 -18 24 -58 37 -88 13 -30 26 -58 30 -62 3 -5 23 33 44
83 21 49 36 92 33 96 -5 5 -16 -17 -54 -109 -8 -21 -18 -36 -22 -33 -4 2 -20
36 -36 74 -15 39 -32 71 -37 71 -4 0 -2 -15 5 -32z"/>
<path d="M2290 2495 l0 -95 55 0 c30 0 55 5 55 10 0 6 -20 10 -45 10 -45 0
-45 0 -45 34 0 34 1 35 48 39 l47 3 -47 2 -48 2 0 39 0 40 48 4 c46 3 46 3
-10 5 l-58 2 0 -95z"/>
<path d="M2698 2579 c-21 -12 -24 -52 -5 -66 6 -6 29 -16 49 -22 20 -7 42 -19
49 -28 11 -13 10 -18 -10 -34 -28 -23 -54 -24 -76 -3 -9 9 -19 13 -23 9 -12
-11 30 -35 63 -35 45 0 67 20 63 55 -3 25 -10 32 -53 48 -56 21 -68 33 -54 59
10 19 63 25 74 8 3 -5 11 -10 17 -10 7 0 6 6 -2 15 -14 17 -66 19 -92 4z"/>
<path d="M2920 2495 c0 -57 4 -95 10 -95 6 0 10 38 10 95 0 57 -4 95 -10 95
-6 0 -10 -38 -10 -95z"/>
<path d="M3060 2495 l0 -95 45 0 c25 0 45 5 45 10 0 6 -16 10 -35 10 l-35 0 0
85 c0 50 -4 85 -10 85 -6 0 -10 -38 -10 -95z"/>
<path d="M3253 2558 c8 -18 24 -58 37 -88 13 -30 26 -58 30 -62 3 -5 23 33 44
83 21 49 36 92 33 96 -5 5 -16 -17 -54 -109 -8 -21 -18 -36 -22 -33 -4 2 -20
36 -36 74 -15 39 -32 71 -37 71 -4 0 -2 -15 5 -32z"/>
<path d="M3540 2504 c-19 -48 -36 -91 -38 -95 -2 -5 0 -9 5 -9 5 0 14 14 20
30 10 27 16 30 53 30 37 0 43 -3 53 -30 6 -16 15 -30 20 -30 5 0 7 4 5 9 -32
83 -74 181 -78 181 -3 0 -21 -39 -40 -86z m63 6 l15 -40 -38 0 -38 0 15 40 c9
22 19 40 23 40 4 0 14 -18 23 -40z"/>
<path d="M2250 2244 c25 -14 133 -71 242 -125 348 -177 494 -292 575 -455 37
-76 38 -80 38 -188 0 -104 -2 -115 -32 -179 -36 -76 -120 -170 -194 -218 -27
-17 -84 -43 -127 -57 -102 -34 -296 -37 -412 -8 -190 48 -346 143 -501 303
-156 160 -269 380 -334 651 l-17 72 -39 0 -39 0 0 -605 0 -605 40 0 c36 0 41
3 60 40 29 56 92 115 146 136 71 27 146 15 316 -50 178 -67 261 -91 393 -111
320 -48 646 26 880 200 87 64 213 196 265 276 164 254 185 622 50 889 l-30 60
-663 0 -662 0 45 -26z"/>
</g>
</svg>
